<svg id="Capa_1" enable-background="new 0 0 552.47 552.47" height="512" viewBox="0 0 552.47 552.47" width="512" xmlns="http://www.w3.org/2000/svg"><path d="m552.47 328.029c0-28.338-13.91-53.312-35.063-69.059h.533v-17.265c0-114.244-92.933-207.176-207.176-207.176h-69.059c-114.244 0-207.176 92.933-207.176 207.176v17.265h.533c-21.153 15.748-35.062 40.722-35.062 69.059 0 28.338 13.91 53.312 35.063 69.059h-.533v34.529c0 47.596 38.727 86.323 86.324 86.323h310.765c47.596 0 86.323-38.727 86.323-86.323v-34.529h-.533c21.152-15.747 35.061-40.721 35.061-69.059zm-483.411-86.323c0-95.192 77.455-172.647 172.647-172.647h69.059c95.192 0 172.647 77.455 172.647 172.647v1.747c-5.581-1.138-11.353-1.747-17.265-1.747h-379.824c-5.912 0-11.684.609-17.265 1.747v-1.747zm414.352 189.911c0 28.561-23.233 51.794-51.794 51.794h-310.764c-28.561 0-51.794-23.233-51.794-51.794v-19.012c5.581 1.138 11.353 1.747 17.265 1.747h379.823c5.912 0 11.684-.609 17.265-1.747v19.012zm-17.264-51.794h-379.824c-28.561 0-51.794-23.233-51.794-51.794s23.233-51.794 51.794-51.794h379.823c28.561 0 51.794 23.233 51.794 51.794.001 28.561-23.232 51.794-51.793 51.794z" fill="#fff"/></svg>